:SAMPLES-PER-SECOND 30
:FULLY-SPECIFIED
:DEGREES
610
root  -20.4895 39.1128 4.39472 -137.178 -84.8063 127.833
RightUpLeg  -17.4246 -1.16745 -7.76488
RightLeg  12.5792 4.82792 0.495304
RightFoot  -2.46948 -0.603222 7.53949
RightToes  -2.21189e-009 0 -3.6325e-017
Spine  6.728 -0.968616 -5.58102
Spine1  8.24436 -1.91208 1.55614
HEad  -12.7241 4.60399 -4.17982
LeftShoulder1  0.125466 3.12597 -27.0304
LeftArm  -13.8627 9.77809 -39.0062
LeftForeArm  85.104 -78.5003 -106.439
LeftHand  0.0307541 2.65539 -1.96514
RightShoulder  -0.307168 -4.45663 25.0852
RightArm  -16.4407 -20.7645 36.6778
RightForeArm  111.032 69.7263 146.072
RightHand  -0.101761 -0.0551839 -2.22066
LeftUpLeg  9.39902 6.18532 -5.07001
LeftLeg  15.4218 -3.04182 -0.682943
LeftFoot  -15.9273 0.383128 7.1753
LeftToes  -4.03379e-008 1.61488e-010 -5.81581e-011
611
root  -21.7645 38.993 4.22869 -130.329 -84.9074 121.196
RightUpLeg  -16.4752 -5.94113 -6.44777
RightLeg  2.68538 11.7335 -1.22886
RightFoot  -3.08921 -0.504341 6.70074
RightToes  -2.21189e-009 0 -3.6325e-017
Spine  6.08721 -1.02751 -5.21856
Spine1  8.87075 -1.92591 1.84459
HEad  -12.6922 3.28494 -4.30884
LeftShoulder1  0.158922 3.02265 -26.8344
LeftArm  -13.8216 9.44372 -39.1233
LeftForeArm  88.398 -78.2468 -110.103
LeftHand  0.00608714 2.93726 -1.08557
RightShoulder  -0.322701 -4.5118 24.9026
RightArm  -16.7845 -21.4937 36.3061
RightForeArm  112.252 68.7836 147.821
RightHand  -0.100975 -0.156613 -2.25985
LeftUpLeg  11.86 6.23881 -4.90497
LeftLeg  14.4194 -3.65629 -0.712433
LeftFoot  -17.4968 0.465142 6.68224
LeftToes  -4.03379e-008 1.61488e-010 -5.81581e-011
612
root  -23.1245 38.7776 4.04646 -121.771 -85.3241 112.464
RightUpLeg  -15.7136 -7.26763 -6.46666
RightLeg  -2.04542 12.9166 -1.76885
RightFoot  -4.09225 -0.473151 6.98516
RightToes  -2.21189e-009 0 -3.6325e-017
Spine  5.78962 -1.26654 -4.418
Spine1  9.41598 -2.12501 1.75238
HEad  -12.4727 2.71101 -4.44755
LeftShoulder1  0.169217 2.99331 -26.9797
LeftArm  -14.0827 9.03823 -38.9416
LeftForeArm  90.2515 -78.078 -112.155
LeftHand  0.0128315 2.7923 -1.32251
RightShoulder  -0.312369 -4.48125 24.8227
RightArm  -17.1592 -21.9332 35.9063
RightForeArm  112.559 67.7982 149.39
RightHand  -0.157807 -0.696334 -3.82875
LeftUpLeg  14.6167 6.3703 -4.30733
LeftLeg  14.0359 -4.80209 -0.756991
LeftFoot  -19.4348 0.5554 6.19848
LeftToes  -4.03379e-008 1.61488e-010 -5.81581e-011
613
root  -24.5955 38.4564 3.81104 -119.638 -85.9445 110.163
RightUpLeg  -15.8272 -7.11254 -6.07889
RightLeg  0.243657 8.55204 -0.988893
RightFoot  -4.09878 -0.416361 6.20093
RightToes  -2.21189e-009 0 -3.6325e-017
Spine  5.47986 -1.35647 -3.10309
Spine1  9.76166 -2.17057 1.73518
HEad  -11.9143 3.25104 -4.57805
LeftShoulder1  0.144822 3.06883 -27.1367
LeftArm  -14.2802 8.9493 -39.0475
LeftForeArm  92.2729 -77.8883 -114.265
LeftHand  0.0253329 2.98654 -2.08352
RightShoulder  -0.325042 -4.52908 24.604
RightArm  -17.1186 -22.1409 35.216
RightForeArm  112.907 66.9973 150.576
RightHand  -0.16864 -0.5478 -3.98951
LeftUpLeg  17.0348 5.77747 -3.52772
LeftLeg  14.7552 -4.81201 -0.335929
LeftFoot  -21.9385 0.653266 5.61115
LeftToes  -4.03379e-008 1.61488e-010 -5.81581e-011
614
root  -26.0386 38.2061 3.51903 -114.223 -87.365 105.333
RightUpLeg  -17.3932 -6.47347 -4.82788
RightLeg  5.90488 3.21132 -0.314106
RightFoot  0.863368 -0.282342 2.89082
RightToes  -2.21189e-009 0 -3.6325e-017
Spine  4.64856 -1.62056 -1.35254
Spine1  10.0124 -2.58303 2.57024
HEad  -11.4681 3.04689 -4.95865
LeftShoulder1  0.156827 3.02765 -26.8304
LeftArm  -14.5023 9.85629 -39.442
LeftForeArm  94.4045 -77.5922 -116.977
LeftHand  0.0134173 2.97015 -1.44329
RightShoulder  -0.338277 -4.57742 24.4458
RightArm  -17.0598 -22.2025 34.3601
RightForeArm  113.957 66.5002 151.343
RightHand  -0.124147 -0.794464 -3.0631
LeftUpLeg  18.4245 3.51055 -2.40574
LeftLeg  15.6773 -3.46894 0.0436457
LeftFoot  -23.8753 0.661554 4.71804
LeftToes  -4.03379e-008 1.61488e-010 -5.81581e-011
615
root  -27.4786 38.027 3.25409 -92.9345 -89.3354 83.953
RightUpLeg  -18.3861 -7.0746 -3.31422
RightLeg  11.073 2.46576 0.594148
RightFoot  8.39032 -0.174491 1.26756
RightToes  -2.21189e-009 0 -3.6325e-017
Spine  5.03878 -2.06921 1.66247
Spine1  9.5856 -2.95399 2.77223
HEad  -11.1532 2.97518 -5.01095
LeftShoulder1  0.0593019 3.3276 -27.3771
LeftArm  -13.9108 10.0803 -38.621
LeftForeArm  96.1135 -77.388 -118.764
LeftHand  -0.00390924 3.45541 -0.961951
RightShoulder  -0.358628 -4.6429 24.4362
RightArm  -16.8114 -22.3636 33.5747
RightForeArm  114.075 65.9635 152.051
RightHand  -0.129603 -0.743823 -3.16501
LeftUpLeg  19.9498 -0.716824 -1.56507
LeftLeg  17.6877 -0.563326 0.421197
LeftFoot  -25.0106 0.45078 2.53306
LeftToes  -4.03379e-008 1.61488e-010 -5.81581e-011
616
root  -28.9737 37.797 3.0052 108.306 -88.6181 -117.918
RightUpLeg  -19.1749 -7.36522 -1.0624
RightLeg  18.147 3.93614 1.29132
RightFoot  7.08548 -0.209095 1.56768
RightToes  -2.21189e-009 0 -3.6325e-017
Spine  5.84916 -2.1169 6.17046
Spine1  9.17302 -2.22427 0.882903
HEad  -11.0877 2.82659 -5.04886
LeftShoulder1  0.142713 3.08105 -27.6252
LeftArm  -13.4416 10.4656 -38.1617
LeftForeArm  96.3168 -77.3259 -119.193
LeftHand  0.00299387 3.32943 -1.13213
RightShoulder  -0.41356 -4.80282 24.8987
RightArm  -16.8099 -22.0849 32.6701
RightForeArm  114.202 66.0697 151.926
RightHand  -0.117596 -1.051 -3.02709
LeftUpLeg  20.7671 -1.8337 0.529166
LeftLeg  22.7608 -0.235355 0.173422
LeftFoot  -25.1681 0.0027429 -1.22325
LeftToes  -4.03379e-008 1.61488e-010 -5.81581e-011
617
root  -30.3464 37.6643 2.6944 110.605 -87.0331 -120.033
RightUpLeg  -20.0873 -6.89275 0.997019
RightLeg  23.556 4.16598 1.7463
RightFoot  5.18859 0.213165 -1.23506
RightToes  -2.21189e-009 0 -3.6325e-017
Spine  5.69486 -2.03956 8.6291
Spine1  9.45653 -1.83411 1.25053
HEad  -10.6443 3.66929 -5.60262
LeftShoulder1  0.11234 3.1781 -28.3178
LeftArm  -13.0825 10.6885 -37.9759
LeftForeArm  92.8692 -77.6903 -115.846
LeftHand  0.00392749 3.0902 -0.71131
RightShoulder  -0.356051 -4.63914 24.344
RightArm  -16.4941 -21.0913 33.2398
RightForeArm  113.267 67.0915 150.463
RightHand  -0.116977 -1.08984 -3.04055
LeftUpLeg  18.5717 -1.18958 3.15953
LeftLeg  30.9024 -1.86001 -0.891038
LeftFoot  -22.1666 -0.427337 -6.23873
LeftToes  -4.03379e-008 1.61488e-010 -5.81581e-011
618
root  -31.5619 37.6596 2.31651 86.8118 -86.1901 -96.2382
RightUpLeg  -19.5406 -7.16354 2.31388
RightLeg  26.8746 3.08744 1.46642
RightFoot  1.96894 0.285384 -2.29775
RightToes  -2.21189e-009 0 -3.6325e-017
Spine  5.981 -2.71638 9.39113
Spine1  9.66071 -2.43633 2.64296
HEad  -9.80881 3.80291 -5.392
LeftShoulder1  0.122247 3.14722 -28.1366
LeftArm  -13.3501 10.7624 -38.463
LeftForeArm  88.5316 -78.135 -111.077
LeftHand  0.00504831 2.7173 -1.21801
RightShoulder  -0.361575 -4.64292 24.7205
RightArm  -15.8129 -19.1437 33.4055
RightForeArm  111.272 68.5373 148.126
RightHand  -0.117194 -0.716415 -2.85076
LeftUpLeg  13.7584 -1.73267 5.63939
LeftLeg  41.6062 -2.61326 -2.04287
LeftFoot  -13.5823 -0.136483 -10.2146
LeftToes  -4.03379e-008 1.61488e-010 -5.81581e-011
619
root  -32.7102 37.7429 2.01227 64.9421 -84.5112 -74.2099
RightUpLeg  -18.1677 -8.26009 3.80495
RightLeg  28.2335 2.13311 0.999737
RightFoot  -0.868137 0.194682 -2.18902
RightToes  -2.21189e-009 0 -3.6325e-017
Spine  5.93586 -3.47794 11.2187
Spine1  9.88665 -2.96794 3.02385
HEad  -9.83409 3.58396 -5.18761
LeftShoulder1  0.208519 2.89323 -27.9963
LeftArm  -13.0326 9.5368 -38.6958
LeftForeArm  82.5305 -78.5367 -104.941
LeftHand  0.000821913 2.7741 -0.811368
RightShoulder  -0.391082 -4.73579 24.7824
RightArm  -15.5469 -17.9037 33.4697
RightForeArm  110.069 69.3318 146.663
RightHand  -0.110295 -1.43903 -3.04558
LeftUpLeg  6.90722 -3.25305 7.61556
LeftLeg  52.7046 -1.19929 -1.16719
LeftFoot  -0.215926 0.710829 -8.03624
LeftToes  -4.03379e-008 1.61488e-010 -5.81581e-011
